# xmcd
#
# Track frame offsets: 
#        150
#        21325
#        52485
#        67072
#        99770
#        115165
#        137357
#        165985
#        189770
#
# Disc length: 2898 seconds
#
# Revision: 2
# Processed by: cddbd v1.5.2PL0 Copyright (c) Steve Scherf et al.
# Submitted via: ExactAudioCopy v1.0b4
#
DISCID=710b5009
DTITLE=Chicago Beau and Friends - Having A Fit Over Your Love
DYEAR=1994
DGENRE=Blues
TTITLE0=Having A Fit Over Your Love
TTITLE1=I Am A Black Snake
TTITLE2=Mama's Baby Daddy's Maybe
TTITLE3=Don't Run Me Out Of Your Life
TTITLE4=Hangover
TTITLE5=Shake Your Boogie Woogie
TTITLE6=Can't Send The Children To School
TTITLE7=Dust My Room
TTITLE8=Wine Time After Hours
EXTD=\nYEAR: 2002  ID3G:   2
EXTT0=
EXTT1=
EXTT2=
EXTT3=
EXTT4=
EXTT5=
EXTT6=
EXTT7=
EXTT8=
PLAYORDER=
